<svg width="732" height="732" viewBox="0 0 732 732" fill="none" xmlns="http://www.w3.org/2000/svg">
<rect width="732" height="732" rx="64" fill="#F4F1EB"/>
<path d="M324.63 299.767C372.057 235.114 418.987 278.043 436.524 307.588" stroke="#527058" stroke-width="28"/>
<path fill-rule="evenodd" clip-rule="evenodd" d="M543.389 128C600.282 169.858 638.184 232.59 649.404 301.529C650.824 304.635 652.116 307.806 653.275 311.034L662.54 308.825C674.359 306.006 686.225 313.302 689.044 325.12C691.863 336.939 684.568 348.805 672.749 351.624L660.36 354.579C660.255 359.389 659.868 364.244 659.178 369.126C656.896 385.279 651.542 400.242 643.792 413.508C642.819 417.159 641.767 420.807 640.632 424.448C596.475 566.134 445.819 645.197 304.133 601.04C209.625 571.586 142.979 494.748 122.18 404.794C148.637 478.959 208.416 540.222 289.381 565.455C399.71 599.839 515.672 556.817 578.753 467.1C560.97 473.33 541.473 475.515 521.528 472.697C454.916 463.287 408.546 401.659 417.956 335.048C427.367 268.436 488.995 222.065 555.607 231.476C580.391 234.977 602.371 245.709 619.72 261.235C608.296 210.355 581.696 163.736 543.389 128ZM536.93 251C482.806 251 438.93 294.876 438.93 349C438.93 403.124 482.806 447 536.93 447C591.054 447 634.93 403.124 634.93 349C634.93 294.876 591.054 251 536.93 251Z" fill="#527058"/>
<path fill-rule="evenodd" clip-rule="evenodd" d="M103.634 250.369C128.02 205.484 178.458 178.194 232.011 185.76C300.915 195.494 348.881 259.243 339.147 328.146C329.412 397.05 265.664 445.017 196.76 435.282C127.856 425.548 79.8898 361.798 89.6243 292.895C89.6603 292.64 89.6991 292.385 89.7366 292.131L77.5334 287.725C66.1059 283.598 60.1871 270.988 64.3137 259.561C68.4406 248.133 81.0508 242.214 92.4788 246.341L103.634 250.369ZM211.342 205C155.837 205 110.842 249.995 110.842 305.5C110.842 361.005 155.837 406 211.342 406C266.847 406 311.842 361.005 311.842 305.5C311.842 249.995 266.847 205 211.342 205Z" fill="#527058"/>
</svg>
