<svg width="627" height="486" viewBox="0 0 627 486" fill="none" xmlns="http://www.w3.org/2000/svg">
<path d="M261.63 171.767C309.057 107.114 355.987 150.043 373.524 179.588" stroke="#527058" stroke-width="28"/>
<path fill-rule="evenodd" clip-rule="evenodd" d="M480.389 0C537.282 41.8582 575.184 104.59 586.404 173.529C587.824 176.635 589.116 179.806 590.275 183.034L599.54 180.825C611.359 178.006 623.225 185.302 626.044 197.12C628.863 208.939 621.568 220.805 609.749 223.624L597.36 226.579C597.255 231.389 596.868 236.244 596.178 241.126C593.896 257.279 588.542 272.242 580.792 285.508C579.819 289.159 578.767 292.807 577.632 296.448C533.475 438.134 382.819 517.197 241.133 473.04C146.625 443.586 79.9791 366.748 59.1799 276.794C85.6368 350.959 145.416 412.222 226.381 437.455C336.71 471.839 452.672 428.817 515.753 339.1C497.97 345.33 478.473 347.515 458.528 344.697C391.916 335.287 345.546 273.659 354.956 207.048C364.367 140.436 425.995 94.0649 492.607 103.476C517.391 106.977 539.371 117.709 556.72 133.235C545.296 82.355 518.696 35.7358 480.389 0ZM473.93 123C419.806 123 375.93 166.876 375.93 221C375.93 275.124 419.806 319 473.93 319C528.054 319 571.93 275.124 571.93 221C571.93 166.876 528.054 123 473.93 123Z" fill="#527058"/>
<path fill-rule="evenodd" clip-rule="evenodd" d="M40.634 122.369C65.02 77.4844 115.458 50.1941 169.011 57.7598C237.915 67.4942 285.881 131.243 276.147 200.146C266.412 269.05 202.664 317.017 133.76 307.282C64.8564 297.548 16.8898 233.798 26.6243 164.895C26.6603 164.64 26.6991 164.385 26.7366 164.131L14.5334 159.725C3.10589 155.598 -2.81286 142.988 1.31371 131.561C5.44059 120.133 18.0508 114.214 29.4788 118.341L40.634 122.369ZM148.342 77C92.8374 77 47.842 121.995 47.842 177.5C47.842 233.005 92.8374 278 148.342 278C203.847 278 248.842 233.005 248.842 177.5C248.842 121.995 203.847 77 148.342 77Z" fill="#527058"/>
</svg>
